<?xml version="1.0" standalone="no"?>
<!DOCTYPE svg PUBLIC "-//W3C//DTD SVG 20010904//EN"
 "http://www.w3.org/TR/2001/REC-SVG-20010904/DTD/svg10.dtd">
<svg version="1.0" xmlns="http://www.w3.org/2000/svg"
 width="2500.000000pt" height="412.000000pt" viewBox="0 0 2500.000000 412.000000"
 preserveAspectRatio="xMidYMid meet">

<g transform="translate(0.000000,412.000000) scale(0.100000,-0.100000)"
fill="#0092ff" stroke="none">
<path d="M340 1910 l0 -1530 106 0 107 0 266 262 c146 145 267 268 269 274 3
12 -91 24 -190 24 l-58 0 0 1250 0 1250 -250 0 -250 0 0 -1530z"/>
<path d="M2727 3433 c-4 -3 -7 -692 -7 -1530 l0 -1523 138 0 137 0 272 269
c150 148 269 271 266 275 -4 3 -59 6 -124 6 -97 0 -118 3 -123 16 -3 9 -6 157
-6 329 0 172 3 320 6 329 6 14 63 16 545 16 l539 0 0 275 0 275 -542 2 -543 3
0 350 0 350 610 5 610 5 0 275 0 275 -886 3 c-487 1 -889 -1 -892 -5z"/>
<path d="M6150 3415 c-6 -15 -10 -29 -10 -33 0 -6 -28 -93 -175 -542 -35 -107
-102 -316 -150 -465 -48 -148 -100 -308 -115 -355 -15 -47 -54 -164 -85 -260
-31 -96 -83 -256 -115 -355 -32 -99 -113 -349 -180 -555 -67 -206 -128 -394
-136 -418 -8 -23 -14 -45 -14 -47 0 -3 132 -5 293 -5 l293 0 11 32 c6 18 50
155 98 303 48 149 101 312 118 364 l32 93 107 2 108 1 471 471 471 471 -20 59
c-11 33 -43 129 -70 214 -28 85 -100 308 -160 495 -61 187 -126 387 -145 445
l-33 105 -292 3 -292 2 -10 -25z m400 -1197 c51 -156 105 -323 121 -373 16
-49 27 -95 25 -102 -4 -10 -59 -13 -245 -13 -142 0 -242 4 -246 10 -5 9 17 84
85 290 16 47 56 172 90 278 34 105 65 192 70 192 5 0 50 -127 100 -282z"/>
<path d="M8850 2992 c-247 -246 -450 -451 -450 -455 0 -4 5 -7 10 -7 14 0 900
887 900 900 0 5 -2 10 -5 10 -3 0 -207 -202 -455 -448z"/>
<path d="M8873 2953 c-268 -268 -482 -488 -477 -490 10 -3 984 957 984 970 0
4 -4 7 -10 7 -5 0 -229 -219 -497 -487z"/>
<path d="M8908 2920 c-284 -286 -513 -520 -507 -520 5 0 139 129 298 288 159
158 391 388 515 511 208 206 240 241 219 241 -5 0 -241 -234 -525 -520z"/>
<path d="M8938 2892 c-302 -301 -548 -551 -548 -555 0 -5 6 -4 14 0 26 14
1104 1092 1098 1098 -3 3 -8 5 -11 5 -3 0 -252 -247 -553 -548z"/>
<path d="M9030 2795 c-354 -354 -641 -648 -637 -652 8 -7 1297 1275 1297 1289
0 5 -3 8 -8 8 -4 0 -297 -290 -652 -645z"/>
<path d="M9065 2767 c-371 -371 -675 -678 -675 -681 0 -4 8 -2 18 3 30 17
1346 1340 1339 1347 -3 4 -310 -297 -682 -669z"/>
<path d="M11393 2308 c3 -1223 0 -1144 55 -1298 114 -321 411 -566 752 -620
51 -8 179 -10 400 -8 376 5 410 11 587 98 311 153 501 437 533 794 12 134 13
1503 2 1510 -5 3 -133 -120 -285 -272 l-277 -278 0 -393 c0 -333 -2 -401 -16
-449 -61 -210 -235 -382 -444 -437 -83 -22 -224 -19 -306 6 -217 66 -383 246
-429 466 -12 56 -15 235 -15 1041 l0 972 -280 0 -281 0 4 -1132z"/>
<path d="M13177 3426 c-4 -10 -1 -13 8 -9 8 3 12 9 9 14 -7 12 -11 11 -17 -5z"/>
<path d="M13207 3398 c-48 -51 -41 -61 9 -14 21 20 42 36 47 36 4 0 5 5 2 10
-10 16 -18 12 -58 -32z"/>
<path d="M13240 3365 c-41 -41 -70 -75 -64 -75 11 0 154 132 154 143 0 17 -21
2 -90 -68z"/>
<path d="M13312 3382 c-123 -127 -146 -152 -139 -158 7 -7 217 194 217 208 0
20 -25 4 -78 -50z"/>
<path d="M13302 3302 c-73 -74 -131 -136 -128 -139 6 -7 268 256 264 266 -2 4
-63 -53 -136 -127z"/>
<path d="M13337 3273 c-92 -92 -164 -169 -162 -172 3 -2 62 52 132 122 71 69
147 144 171 166 23 22 38 42 34 45 -5 3 -83 -70 -175 -161z"/>
<path d="M13370 3248 c-104 -105 -190 -196 -190 -202 0 -6 37 25 83 69 214
208 317 310 317 317 0 23 -36 -9 -210 -184z"/>
<path d="M13399 3215 c-214 -216 -241 -245 -222 -245 16 0 465 457 455 463 -5
4 -110 -95 -233 -218z"/>
<path d="M13425 3180 c-142 -142 -256 -263 -252 -267 8 -7 527 505 527 519 0
5 -3 8 -8 8 -4 0 -124 -117 -267 -260z"/>
<path d="M14387 3433 c-4 -3 -7 -692 -7 -1530 l0 -1523 136 0 137 0 266 262
c146 145 267 268 269 275 3 10 -24 13 -116 13 -100 0 -121 3 -126 16 -3 9 -6
157 -6 329 0 172 3 320 6 329 6 14 63 16 545 16 l539 0 0 275 0 275 -542 2
-543 3 0 350 0 350 610 5 c336 3 611 6 613 8 1 1 1 125 0 275 l-3 272 -886 3
c-487 1 -889 -1 -892 -5z"/>
<path d="M17631 3424 c-142 -26 -267 -77 -386 -157 -33 -23 -65 -46 -71 -51
-6 -6 -26 -25 -45 -42 -112 -102 -200 -240 -252 -395 -51 -150 -57 -248 -57
-867 0 -644 7 -746 64 -902 42 -113 148 -275 236 -359 109 -104 314 -223 391
-227 20 -1 42 -5 49 -9 13 -8 448 421 437 431 -3 4 -36 -23 -73 -60 -80 -80
-105 -88 -31 -10 75 80 75 82 20 89 -76 10 -172 44 -245 86 -106 62 -227 197
-274 307 -50 117 -49 104 -49 652 0 508 0 516 22 579 55 157 179 309 313 383
195 108 434 109 630 0 90 -49 225 -187 268 -275 74 -148 75 -156 80 -622 3
-231 4 -433 4 -450 -1 -26 25 -3 248 220 l250 250 -4 320 c-4 329 -6 350 -50
478 -33 93 -57 139 -117 227 -149 218 -369 357 -639 405 -112 19 -609 19 -719
-1z m1154 -1774 c-22 -22 -43 -40 -47 -40 -5 0 11 20 34 43 24 24 45 42 47 40
3 -2 -13 -21 -34 -43z"/>
<path d="M19827 3433 c-11 -10 -8 -2395 2 -2391 6 2 132 122 280 266 l271 264
0 114 0 114 208 0 c311 0 430 18 566 86 106 52 199 127 273 217 127 159 183
315 183 517 0 104 -10 167 -41 264 -69 216 -279 428 -500 506 -125 44 -201 49
-735 50 -275 0 -504 -3 -507 -7z m1107 -564 c80 -20 149 -96 176 -192 29 -107
-31 -229 -141 -284 l-64 -33 -262 0 -263 0 0 253 c0 140 3 257 7 260 11 12
501 8 547 -4z"/>
<path d="M22803 3051 c-508 -510 -518 -520 -511 -526 3 -3 210 199 461 450
250 250 451 457 447 460 -5 3 -183 -170 -397 -384z"/>
<path d="M22765 2950 c-269 -270 -484 -490 -476 -490 13 0 981 961 981 974 0
3 -3 6 -8 6 -4 0 -228 -220 -497 -490z"/>
<path d="M22802 2927 c-281 -281 -512 -519 -512 -527 0 -8 234 219 520 505
286 286 520 523 520 527 0 5 -3 8 -8 8 -4 0 -238 -231 -520 -513z"/>
<path d="M22837 2896 c-296 -298 -541 -544 -544 -548 -4 -5 -2 -8 4 -8 9 0
216 205 951 945 78 79 139 145 135 148 -5 2 -250 -240 -546 -537z"/>
<path d="M22877 2872 c-312 -312 -567 -573 -567 -580 0 -8 259 245 575 561
316 317 575 578 575 581 0 3 -3 6 -8 6 -4 0 -262 -255 -575 -568z"/>
<path d="M22911 2846 c-326 -326 -589 -596 -584 -599 5 -3 276 261 602 587
326 326 589 596 584 599 -5 3 -276 -261 -602 -587z"/>
<path d="M22952 2823 c-337 -338 -611 -617 -609 -620 5 -4 1237 1221 1237
1231 0 3 -3 6 -7 5 -5 0 -284 -277 -621 -616z"/>
<path d="M22996 2803 c-349 -350 -633 -639 -631 -642 3 -2 87 77 188 176 821
816 1096 1093 1088 1098 -5 3 -295 -281 -645 -632z"/>
<path d="M23416 3165 c-152 -152 -276 -277 -276 -280 0 -2 8 -2 18 2 18 6 552
533 552 546 0 4 -4 7 -9 7 -5 0 -133 -124 -285 -275z"/>
<path d="M8817 3019 c-224 -226 -407 -415 -405 -421 4 -11 828 808 828 823 0
5 -3 9 -7 9 -4 0 -191 -185 -416 -411z"/>
<path d="M8965 2856 c-316 -315 -575 -576 -575 -580 0 -4 7 -3 15 2 13 7 971
958 1115 1106 24 25 39 46 32 46 -6 0 -270 -258 -587 -574z"/>
<path d="M9509 3332 c-52 -53 -181 -181 -285 -284 -342 -337 -839 -841 -822
-831 28 14 1230 1213 1216 1213 -7 -1 -56 -44 -109 -98z"/>
<path d="M22704 3016 c-230 -228 -415 -418 -411 -422 4 -5 198 182 430 414
232 232 417 422 411 422 -6 0 -199 -186 -430 -414z"/>
<path d="M23497 3184 c-136 -135 -247 -247 -247 -250 0 -23 60 31 268 239 133
133 242 245 242 250 0 4 -4 7 -8 7 -4 0 -119 -111 -255 -246z"/>
<path d="M8839 3103 c-174 -175 -339 -340 -367 -366 -43 -41 -63 -67 -49 -67
1 0 173 169 382 375 209 206 373 375 365 375 -8 0 -157 -143 -331 -317z"/>
<path d="M9600 3174 c-135 -135 -239 -244 -232 -242 17 4 492 468 492 480 0 4
-3 8 -8 8 -4 0 -117 -111 -252 -246z"/>
<path d="M9748 3266 c-271 -272 -313 -316 -299 -316 14 0 471 448 471 462 0
22 -31 -4 -172 -146z"/>
<path d="M9747 3196 c-120 -120 -216 -221 -213 -224 7 -7 439 425 434 435 -1
5 -101 -90 -221 -211z"/>
<path d="M22709 3082 c-355 -358 -425 -432 -412 -432 5 0 141 132 302 293 482
480 479 477 453 477 -4 0 -159 -152 -343 -338z"/>
<path d="M23560 3185 c-129 -129 -228 -235 -220 -235 15 0 470 448 470 463 0
4 -3 7 -8 7 -4 0 -113 -106 -242 -235z"/>
<path d="M9507 3145 c-146 -146 -260 -265 -254 -265 15 0 533 517 525 525 -3
3 -125 -114 -271 -260z"/>
<path d="M13442 3137 c-149 -149 -272 -278 -272 -285 0 -8 5 -10 13 -5 33 22
539 543 536 552 -2 6 -127 -112 -277 -262z"/>
<path d="M8752 3086 c-212 -211 -312 -317 -307 -326 5 -8 105 85 315 295 168
169 312 315 318 326 38 60 -43 -13 -326 -295z"/>
<path d="M9801 3186 c-125 -125 -211 -218 -207 -225 4 -6 24 -11 44 -11 38 0
128 -25 196 -55 122 -52 236 -165 310 -304 l47 -91 257 0 c141 0 263 4 269 8
10 6 11 25 3 83 -39 309 -219 579 -481 723 -74 41 -184 86 -208 86 -9 0 -112
-96 -230 -214z"/>
<path d="M22643 3074 c-179 -179 -323 -327 -320 -330 3 -3 144 134 313 304
326 325 351 352 340 352 -4 0 -154 -146 -333 -326z"/>
<path d="M23628 3186 c-120 -117 -218 -219 -218 -225 0 -7 5 -9 14 -4 21 12
439 443 429 443 -4 -1 -106 -97 -225 -214z"/>
<path d="M23687 3186 c-119 -117 -217 -216 -217 -220 0 -24 51 20 238 207 116
117 212 216 212 220 0 4 -3 7 -8 7 -4 0 -105 -96 -225 -214z"/>
<path d="M23730 3165 c-118 -118 -208 -215 -200 -215 8 0 112 97 230 215 118
118 208 215 200 215 -8 0 -112 -97 -230 -215z"/>
<path d="M23784 3159 c-115 -115 -202 -209 -194 -209 20 0 425 406 413 413 -5
3 -103 -88 -219 -204z"/>
<path d="M8729 3123 c-206 -208 -274 -283 -255 -283 5 0 428 421 490 488 19
20 24 32 16 32 -8 0 -120 -107 -251 -237z"/>
<path d="M22605 3100 c-142 -142 -257 -261 -254 -264 3 -3 124 114 269 259
146 146 260 265 255 265 -6 0 -127 -117 -270 -260z"/>
<path d="M23830 3145 c-112 -112 -201 -208 -197 -212 9 -8 413 386 415 405 1
6 -1 12 -6 12 -4 0 -99 -92 -212 -205z"/>
<path d="M13450 3078 c-144 -145 -266 -272 -272 -283 -6 -11 116 106 271 260
155 154 281 281 281 282 0 16 -56 -35 -280 -259z"/>
<path d="M23870 3125 c-112 -112 -202 -206 -200 -208 3 -2 39 -21 80 -43 52
-27 100 -64 158 -121 l83 -83 299 0 300 0 -7 33 c-29 151 -149 356 -281 480
-53 49 -197 147 -216 147 -6 0 -103 -92 -216 -205z"/>
<path d="M22580 3135 c-91 -91 -160 -165 -155 -165 6 0 84 74 175 165 91 91
160 165 155 165 -6 0 -84 -74 -175 -165z"/>
<path d="M8690 3142 c-84 -81 -151 -154 -149 -160 2 -7 74 57 159 143 85 85
151 157 148 160 -3 4 -75 -61 -158 -143z"/>
<path d="M13440 3005 c-151 -151 -271 -278 -267 -282 10 -9 551 531 546 546
-2 6 -128 -112 -279 -264z"/>
<path d="M13440 2945 c-151 -151 -271 -278 -267 -282 10 -9 551 531 546 546
-2 6 -128 -112 -279 -264z"/>
<path d="M13441 2886 c-151 -151 -272 -279 -270 -285 2 -6 129 114 283 268
153 153 274 281 269 284 -5 3 -132 -117 -282 -267z"/>
<path d="M13442 2827 c-149 -150 -272 -279 -272 -287 0 -8 124 109 276 261
152 152 275 282 273 288 -2 6 -127 -112 -277 -262z"/>
<path d="M13691 3012 c-13 -15 -137 -141 -275 -279 -138 -139 -246 -253 -240
-253 17 0 544 529 544 545 0 19 0 19 -29 -13z"/>
<path d="M13442 2697 c-150 -150 -272 -275 -272 -280 0 -21 35 11 241 217 310
310 322 323 312 329 -5 3 -132 -117 -281 -266z"/>
<path d="M13442 2637 c-149 -150 -272 -279 -272 -287 0 -8 124 109 276 261
152 152 275 282 273 288 -2 6 -127 -112 -277 -262z"/>
<path d="M13446 2577 c-241 -243 -291 -297 -273 -297 13 0 547 542 547 555 0
8 -1 15 -2 14 -2 0 -124 -123 -272 -272z"/>
<path d="M22628 2381 c-223 -223 -266 -271 -240 -271 9 0 512 504 512 513 0
24 -53 -22 -272 -242z"/>
<path d="M8675 2315 c-159 -156 -286 -287 -282 -292 4 -4 137 122 294 280 158
157 285 289 282 291 -3 3 -135 -122 -294 -279z"/>
<path d="M22823 2508 c-55 -52 -251 -247 -367 -367 -33 -33 -57 -64 -53 -68 8
-7 431 408 468 460 31 41 14 33 -48 -25z"/>
<path d="M8660 2235 c-146 -146 -260 -265 -254 -265 18 0 528 504 523 518 -2
7 -123 -107 -269 -253z"/>
<path d="M22648 2273 c-125 -125 -228 -231 -228 -235 0 -24 41 13 245 217 204
205 240 245 218 245 -4 0 -110 -102 -235 -227z"/>
<path d="M22663 2226 c-117 -116 -213 -215 -213 -219 0 -4 5 -7 11 -7 11 0
421 414 427 431 10 26 -33 -13 -225 -205z"/>
<path d="M8649 2164 c-139 -140 -248 -254 -242 -254 19 0 518 496 507 503 -6
3 -125 -109 -265 -249z"/>
<path d="M22691 2191 c-190 -191 -225 -231 -205 -231 4 0 102 93 216 207 182
181 230 237 201 232 -5 -1 -100 -94 -212 -208z"/>
<path d="M22715 2150 c-115 -115 -206 -213 -202 -217 10 -9 421 401 416 416
-2 6 -98 -83 -214 -199z"/>
<path d="M8642 2097 c-141 -141 -251 -257 -244 -257 18 0 518 497 509 506 -4
4 -123 -108 -265 -249z"/>
<path d="M22740 2115 c-112 -112 -201 -207 -197 -211 7 -8 391 367 408 399 23
42 -19 4 -211 -188z"/>
<path d="M8642 2031 l-252 -246 0 -223 c0 -257 11 -380 46 -499 74 -256 261
-471 517 -594 162 -77 199 -83 576 -87 357 -3 418 2 556 50 230 80 429 257
542 483 84 168 103 282 103 633 l0 262 -600 0 -600 0 2 -197 3 -198 329 -3
c233 -2 332 -6 337 -14 9 -15 -16 -99 -51 -168 -85 -169 -233 -292 -415 -345
-83 -24 -259 -25 -340 -1 -210 62 -389 233 -457 438 -20 59 -22 90 -27 505 -3
243 -8 443 -11 446 -3 3 -119 -106 -258 -242z"/>
<path d="M22775 2085 c-107 -108 -195 -201 -195 -208 0 -6 92 80 205 193 113
113 205 206 205 207 0 17 -49 -27 -215 -192z"/>
<path d="M22807 2055 l-198 -203 28 -19 c88 -61 209 -111 333 -139 40 -9 166
-18 325 -24 326 -11 451 -36 561 -111 113 -77 168 -222 135 -356 -32 -128
-174 -251 -360 -314 -86 -29 -240 -35 -326 -14 -121 30 -234 96 -329 191 l-83
84 -287 0 c-246 0 -287 -2 -292 -15 -10 -24 27 -144 68 -223 127 -249 343
-425 613 -503 75 -21 103 -23 412 -27 356 -4 418 1 558 50 281 97 509 331 598
613 71 227 58 448 -37 640 -104 209 -329 372 -601 436 -71 16 -144 22 -345 29
-316 11 -384 22 -504 81 -32 16 -61 29 -65 28 -3 0 -95 -92 -204 -204z"/>
<path d="M6720 1635 c-244 -244 -441 -447 -437 -452 9 -8 13 -5 508 490 214
214 389 393 389 398 0 5 -3 9 -8 9 -4 0 -207 -200 -452 -445z"/>
<path d="M6772 1628 c-227 -227 -418 -421 -423 -430 -7 -13 -6 -18 2 -18 15 0
849 833 849 848 0 7 -3 12 -7 12 -4 0 -193 -186 -421 -412z"/>
<path d="M6801 1584 c-216 -217 -391 -397 -389 -399 2 -2 186 176 408 395 222
220 397 400 389 400 -8 0 -191 -178 -408 -396z"/>
<path d="M18901 1705 c-140 -140 -251 -258 -247 -262 9 -10 510 491 505 506
-2 6 -119 -103 -258 -244z"/>
<path d="M6841 1565 c-205 -207 -371 -378 -368 -381 3 -4 100 88 216 202 115
115 282 280 370 367 89 87 161 164 161 172 0 8 -1 15 -2 15 -2 0 -171 -169
-377 -375z"/>
<path d="M6882 1547 c-193 -194 -352 -356 -352 -360 0 -25 60 30 367 338 286
288 365 375 340 375 -1 0 -161 -159 -355 -353z"/>
<path d="M18892 1629 c-144 -143 -259 -265 -256 -271 4 -6 31 15 63 48 32 33
149 152 261 266 112 115 201 210 199 212 -2 3 -122 -112 -267 -255z"/>
<path d="M6922 1523 c-183 -183 -332 -335 -332 -338 0 -3 4 -5 10 -5 16 0 661
651 657 663 -2 6 -153 -138 -335 -320z"/>
<path d="M18893 1567 c-301 -301 -297 -297 -286 -297 12 0 558 548 552 554 -2
3 -122 -113 -266 -257z"/>
<path d="M6950 1485 c-168 -168 -299 -305 -293 -305 7 0 72 60 145 134 390
392 472 476 463 476 -6 0 -147 -137 -315 -305z"/>
<path d="M18826 1440 c-181 -181 -326 -333 -322 -337 9 -10 659 642 655 656
-2 6 -152 -137 -333 -319z"/>
<path d="M6990 1465 c-151 -151 -271 -277 -267 -281 7 -8 557 534 557 548 0 5
-3 8 -8 8 -4 0 -131 -124 -282 -275z"/>
<path d="M18490 1045 c-366 -366 -658 -665 -650 -665 20 0 1324 1304 1319
1319 -2 6 -303 -288 -669 -654z"/>
<path d="M7030 1445 c-140 -140 -251 -258 -247 -262 8 -7 517 495 517 509 0 5
-3 8 -8 8 -4 0 -122 -115 -262 -255z"/>
<path d="M7080 1425 c-274 -274 -246 -245 -233 -245 6 0 112 102 235 226 197
199 248 254 236 254 -2 0 -109 -106 -238 -235z"/>
<path d="M18528 1018 c-345 -348 -623 -634 -618 -636 10 -4 1244 1235 1248
1254 2 8 2 14 0 14 -2 0 -286 -285 -630 -632z"/>
<path d="M7278 1568 c-24 -25 -122 -124 -218 -221 -96 -97 -168 -177 -159
-177 17 0 435 428 426 437 -4 3 -25 -15 -49 -39z"/>
<path d="M18558 987 c-328 -331 -591 -604 -586 -606 18 -6 1193 1180 1186
1198 -1 5 -271 -261 -600 -592z"/>
<path d="M7116 1344 c-115 -118 -206 -217 -202 -221 7 -7 410 388 427 420 29
52 -36 -6 -225 -199z"/>
<path d="M20090 1255 c-151 -151 -270 -275 -263 -275 14 0 553 528 553 541 0
5 -3 9 -8 9 -4 0 -131 -124 -282 -275z"/>
<path d="M18585 950 c-313 -313 -563 -570 -555 -570 20 0 1134 1114 1129 1129
-2 6 -260 -245 -574 -559z"/>
<path d="M7132 1296 c-118 -116 -210 -215 -206 -219 8 -8 434 410 434 425 0 5
-3 7 -7 7 -5 -1 -104 -97 -221 -213z"/>
<path d="M7151 1254 c-117 -118 -211 -218 -207 -221 7 -7 410 389 427 420 5 9
6 17 2 17 -4 -1 -104 -98 -222 -216z"/>
<path d="M20092 1197 c-149 -150 -272 -276 -272 -280 0 -4 3 -7 7 -7 10 0 553
543 553 552 0 5 -3 8 -8 8 -4 0 -130 -123 -280 -273z"/>
<path d="M18614 919 c-296 -296 -532 -539 -524 -539 20 0 1085 1066 1073 1073
-5 3 -252 -237 -549 -534z"/>
<path d="M7170 1205 c-118 -118 -211 -218 -206 -222 4 -4 102 88 217 205 177
181 223 232 206 232 -1 0 -99 -97 -217 -215z"/>
<path d="M20105 1149 c-250 -247 -337 -341 -254 -275 61 48 534 524 527 531
-3 4 -126 -112 -273 -256z"/>
<path d="M18645 890 c-280 -281 -502 -510 -494 -510 19 0 1013 994 1008 1008
-2 6 -233 -218 -514 -498z"/>
<path d="M7194 1170 c-115 -116 -212 -218 -217 -225 -23 -42 28 5 221 200 183
185 227 235 208 235 -2 0 -97 -95 -212 -210z"/>
<path d="M18683 860 c-259 -261 -467 -477 -462 -479 13 -4 941 930 937 944 -2
5 -215 -204 -475 -465z"/>
<path d="M20090 1065 c-151 -151 -270 -275 -265 -275 6 0 134 124 285 275 151
151 270 275 265 275 -6 0 -134 -124 -285 -275z"/>
<path d="M7197 1108 c-113 -117 -204 -215 -201 -217 3 -3 102 93 222 212 119
119 210 217 201 217 -9 0 -109 -96 -222 -212z"/>
<path d="M20093 1007 c-245 -244 -301 -305 -260 -281 21 13 547 537 547 546 0
4 -3 8 -7 8 -5 0 -131 -123 -280 -273z"/>
<path d="M7211 1060 c-117 -114 -212 -213 -209 -220 4 -13 428 404 428 420 0
6 -1 10 -2 9 -2 0 -99 -94 -217 -209z"/>
<path d="M18718 835 c-238 -236 -434 -434 -436 -442 -2 -7 0 -13 5 -13 5 0
175 166 378 369 481 479 500 499 492 507 -3 4 -201 -186 -439 -421z"/>
<path d="M7230 1015 c-118 -118 -212 -217 -208 -220 6 -7 428 412 428 426 0 5
-1 9 -3 9 -1 0 -99 -97 -217 -215z"/>
<path d="M20090 945 c-151 -151 -271 -277 -267 -281 7 -8 557 534 557 548 0 5
-3 8 -8 8 -4 0 -131 -124 -282 -275z"/>
<path d="M18741 796 c-216 -216 -389 -396 -384 -399 5 -3 186 171 402 387 216
216 389 396 384 399 -5 3 -186 -171 -402 -387z"/>
<path d="M7240 965 c-118 -118 -211 -218 -206 -222 4 -4 94 80 199 188 231
236 243 249 231 248 -5 0 -106 -96 -224 -214z"/>
<path d="M20088 880 c-149 -148 -269 -272 -266 -275 3 -3 131 118 284 269 153
151 273 275 266 276 -7 0 -135 -121 -284 -270z"/>
<path d="M7296 959 c-93 -93 -166 -172 -163 -176 6 -6 70 53 242 225 117 116
122 122 104 121 -8 0 -90 -76 -183 -170z"/>
<path d="M18773 764 c-189 -189 -343 -346 -343 -349 0 -3 4 -5 9 -5 11 0 691
681 691 692 0 4 -3 8 -7 7 -5 0 -162 -156 -350 -345z"/>
<path d="M7273 875 c-117 -118 -213 -220 -213 -226 0 -7 53 40 118 103 64 63
163 160 220 214 91 89 118 124 95 124 -4 0 -103 -97 -220 -215z"/>
<path d="M20090 820 c-150 -149 -270 -273 -268 -275 7 -8 76 56 287 266 252
252 277 279 265 279 -6 0 -134 -122 -284 -270z"/>
<path d="M20098 766 c-236 -232 -296 -296 -274 -296 13 0 562 558 555 564 -2
2 -129 -118 -281 -268z"/>
<path d="M7449 985 c-24 -25 -117 -118 -206 -205 -90 -88 -163 -165 -163 -172
0 -6 3 -8 8 -4 4 4 81 81 172 171 217 213 256 255 244 255 -6 0 -30 -20 -55
-45z"/>
<path d="M18092 702 c-175 -177 -313 -322 -307 -322 16 1 640 629 632 637 -4
4 -150 -138 -325 -315z"/>
<path d="M18805 734 c-186 -184 -285 -288 -276 -291 9 -4 118 100 292 276 234
236 297 304 277 301 -2 -1 -133 -129 -293 -286z"/>
<path d="M7302 773 c-117 -119 -211 -218 -208 -220 5 -5 436 422 436 431 0 17
-33 -14 -228 -211z"/>
<path d="M20090 695 c-151 -151 -271 -277 -267 -281 7 -8 557 534 557 548 0 5
-3 8 -8 8 -4 0 -131 -124 -282 -275z"/>
<path d="M7315 730 c-142 -142 -213 -220 -201 -220 25 0 442 418 430 430 -6 6
-92 -73 -229 -210z"/>
<path d="M989 654 c-150 -151 -267 -274 -259 -274 20 0 555 536 543 543 -5 3
-133 -118 -284 -269z"/>
<path d="M1052 657 c-150 -150 -269 -276 -265 -280 7 -8 553 531 553 545 0 5
-3 8 -8 8 -4 0 -130 -123 -280 -273z"/>
<path d="M1178 654 c-152 -152 -271 -274 -263 -272 18 4 555 537 546 542 -4 3
-131 -119 -283 -270z"/>
<path d="M1242 657 c-150 -150 -269 -276 -265 -280 7 -8 553 531 553 545 0 5
-3 8 -8 8 -4 0 -130 -123 -280 -273z"/>
<path d="M1365 656 c-152 -152 -270 -276 -263 -276 17 0 554 537 546 546 -4 3
-131 -118 -283 -270z"/>
<path d="M1425 658 c-153 -153 -270 -278 -261 -278 21 0 549 527 543 543 -2 7
-129 -113 -282 -265z"/>
<path d="M1558 662 c-149 -150 -268 -275 -264 -279 4 -4 129 115 278 265 150
149 269 274 265 278 -4 4 -129 -115 -279 -264z"/>
<path d="M1614 658 c-163 -163 -272 -278 -262 -278 22 0 551 528 545 543 -3 7
-130 -113 -283 -265z"/>
<path d="M1670 655 c-190 -190 -269 -275 -255 -275 13 0 114 94 283 263 234
234 281 287 254 287 -4 0 -131 -124 -282 -275z"/>
<path d="M3372 657 c-152 -152 -270 -277 -262 -277 19 0 557 537 547 547 -4 4
-132 -118 -285 -270z"/>
<path d="M3432 657 c-152 -152 -270 -277 -261 -277 8 0 109 94 225 209 307
307 329 330 321 338 -4 4 -132 -118 -285 -270z"/>
<path d="M3490 655 c-151 -151 -268 -275 -259 -275 17 0 549 525 549 541 0 5
-3 9 -8 9 -4 0 -131 -124 -282 -275z"/>
<path d="M3891 921 c-34 -21 -540 -536 -530 -540 6 -2 133 118 282 267 238
238 297 303 248 273z"/>
<path d="M3680 654 c-151 -152 -267 -274 -257 -272 18 3 547 526 547 540 0 5
-3 8 -8 8 -4 0 -131 -124 -282 -276z"/>
<path d="M3807 655 c-152 -151 -270 -275 -262 -275 17 0 557 538 546 544 -5 3
-133 -118 -284 -269z"/>
<path d="M3869 654 c-150 -151 -267 -274 -259 -274 20 0 555 536 543 543 -5 3
-133 -118 -284 -269z"/>
<path d="M3999 658 c-150 -149 -268 -273 -262 -275 11 -4 543 523 543 538 0 5
-2 9 -4 9 -2 0 -127 -122 -277 -272z"/>
<path d="M4059 654 c-150 -151 -268 -274 -260 -274 18 0 555 537 543 543 -4 3
-132 -118 -283 -269z"/>
<path d="M4121 661 c-149 -148 -271 -272 -271 -275 0 -25 59 28 294 263 150
150 264 271 258 275 -6 4 -133 -115 -281 -263z"/>
<path d="M15032 657 c-152 -152 -270 -277 -262 -277 19 0 557 537 547 547 -4
4 -132 -118 -285 -270z"/>
<path d="M15092 657 c-152 -152 -270 -277 -262 -277 19 0 557 537 547 547 -4
4 -132 -118 -285 -270z"/>
<path d="M15150 654 c-151 -152 -267 -274 -258 -272 18 3 548 526 548 540 0 4
-3 8 -8 8 -4 0 -131 -124 -282 -276z"/>
<path d="M15279 655 c-152 -151 -269 -275 -260 -275 15 0 551 527 551 543 0 4
-3 7 -7 7 -5 0 -132 -124 -284 -275z"/>
<path d="M15341 656 c-150 -150 -269 -276 -264 -279 9 -6 553 530 553 545 0 4
-3 8 -8 8 -4 0 -130 -123 -281 -274z"/>
<path d="M15466 655 c-152 -151 -270 -275 -262 -275 7 0 133 120 280 266 232
231 281 284 262 284 -2 0 -128 -124 -280 -275z"/>
<path d="M15529 654 c-150 -151 -268 -274 -261 -274 18 0 556 537 544 543 -4
3 -132 -118 -283 -269z"/>
<path d="M15661 661 c-149 -150 -271 -274 -271 -277 0 -16 40 21 258 237 287
286 297 297 290 305 -4 3 -128 -116 -277 -265z"/>
<path d="M15718 656 c-152 -152 -270 -276 -262 -276 19 0 547 527 542 541 -2
6 -128 -113 -280 -265z"/>
<path d="M15780 662 c-148 -148 -270 -272 -270 -275 0 -26 57 25 294 262 157
157 264 271 257 275 -6 4 -126 -108 -281 -262z"/>
<path d="M864 653 c-151 -150 -262 -269 -254 -271 13 -5 218 195 422 411 207
219 110 139 -168 -140z"/>
<path d="M925 650 c-148 -148 -263 -270 -256 -270 8 0 135 122 283 270 148
149 263 270 256 270 -7 0 -135 -121 -283 -270z"/>
<path d="M1105 650 c-148 -148 -263 -270 -255 -270 8 0 137 122 285 270 148
149 263 270 255 270 -8 0 -137 -121 -285 -270z"/>
<path d="M1300 655 c-145 -145 -260 -268 -256 -272 4 -4 129 115 279 265 150
150 265 272 257 272 -9 0 -134 -119 -280 -265z"/>
<path d="M1485 650 c-148 -148 -264 -270 -258 -270 7 0 135 122 285 270 150
149 266 270 258 270 -8 0 -137 -121 -285 -270z"/>
<path d="M1736 649 c-147 -148 -264 -269 -259 -269 5 0 131 122 280 270 149
149 266 270 259 269 -6 0 -132 -121 -280 -270z"/>
<path d="M3305 650 c-148 -148 -263 -270 -255 -270 8 0 110 96 225 213 270
272 322 327 310 327 -6 0 -132 -121 -280 -270z"/>
<path d="M3547 649 c-148 -148 -262 -269 -254 -269 10 0 483 464 546 535 2 3
-2 5 -10 4 -8 0 -135 -121 -282 -270z"/>
<path d="M3740 653 c-149 -150 -259 -268 -252 -271 8 -2 14 -2 15 0 1 2 121
124 267 271 146 147 258 267 250 267 -8 0 -134 -120 -280 -267z"/>
<path d="M3926 650 c-148 -149 -262 -270 -255 -270 8 0 136 122 284 270 148
149 263 270 255 270 -8 0 -136 -122 -284 -270z"/>
<path d="M4178 649 c-147 -148 -263 -269 -258 -269 6 0 132 122 281 270 148
149 264 270 257 269 -7 -1 -133 -122 -280 -270z"/>
<path d="M14967 653 c-147 -148 -262 -270 -256 -272 12 -4 250 229 431 422
195 208 99 125 -175 -150z"/>
<path d="M15206 650 c-157 -158 -261 -269 -250 -268 23 1 555 538 534 538 -8
0 -136 -122 -284 -270z"/>
<path d="M15400 655 c-145 -145 -260 -268 -256 -272 4 -4 129 115 279 265 150
150 265 272 257 272 -9 0 -134 -119 -280 -265z"/>
<path d="M15585 650 c-148 -149 -263 -270 -255 -270 8 0 137 122 285 270 148
149 263 270 255 270 -8 0 -136 -122 -285 -270z"/>
<path d="M15838 649 c-148 -148 -264 -269 -258 -269 5 0 131 122 279 270 149
149 265 270 258 269 -7 0 -132 -122 -279 -270z"/>
<path d="M18833 701 c-111 -113 -197 -208 -191 -210 13 -4 408 389 408 407 0
6 -3 11 -7 11 -5 -1 -99 -95 -210 -208z"/>
<path d="M20105 645 c-149 -145 -263 -264 -255 -264 16 -1 537 515 529 523 -2
3 -126 -114 -274 -259z"/>
<path d="M1789 639 c-141 -142 -252 -259 -247 -259 5 0 126 117 269 260 142
143 254 260 247 259 -7 -1 -128 -118 -269 -260z"/>
<path d="M4230 638 c-141 -142 -251 -258 -245 -258 5 0 127 117 269 260 143
143 253 259 245 258 -8 0 -129 -117 -269 -260z"/>
<path d="M7339 690 c-116 -116 -209 -214 -205 -217 3 -4 43 29 88 73 137 132
348 343 348 349 0 20 -45 -20 -231 -205z"/>
<path d="M15889 639 c-141 -143 -251 -259 -246 -259 6 0 127 117 270 260 142
143 253 259 245 259 -7 -1 -128 -118 -269 -260z"/>
<path d="M18009 686 c-264 -264 -304 -306 -287 -306 7 0 130 117 273 260 143
143 253 260 244 260 -9 0 -112 -96 -230 -214z"/>
<path d="M18130 863 c-40 -28 -460 -450 -460 -462 0 -6 3 -11 8 -11 9 0 482
473 482 483 0 10 -3 9 -30 -10z"/>
<path d="M17830 629 c-124 -126 -220 -229 -215 -229 17 1 471 460 455 460 -8
0 -116 -104 -240 -231z"/>
<path d="M7350 635 c-118 -118 -212 -217 -209 -219 3 -3 101 91 219 209 118
118 212 217 209 219 -3 3 -101 -91 -219 -209z"/>
<path d="M20140 614 c-129 -130 -228 -234 -219 -232 18 3 465 456 457 463 -2
2 -109 -102 -238 -231z"/>
<path d="M1822 615 c-124 -124 -222 -228 -218 -232 4 -4 104 89 222 207 198
197 246 250 228 250 -3 0 -108 -101 -232 -225z"/>
<path d="M4269 615 c-256 -258 -238 -239 -222 -234 17 6 441 416 453 440 6 10
7 19 2 19 -4 0 -109 -101 -233 -225z"/>
<path d="M15929 615 c-123 -124 -226 -228 -228 -230 -2 -3 0 -5 5 -5 11 0 464
442 464 453 0 20 -33 -10 -241 -218z"/>
<path d="M7365 590 c-115 -116 -203 -210 -195 -210 15 0 420 398 420 413 0 4
-3 7 -8 7 -4 0 -102 -94 -217 -210z"/>
<path d="M4299 580 c-112 -110 -197 -200 -190 -200 15 0 405 389 398 397 -2 2
-96 -87 -208 -197z"/>
<path d="M20165 579 c-110 -109 -195 -199 -189 -199 6 0 98 88 205 195 224
225 205 205 193 204 -5 0 -99 -90 -209 -200z"/>
<path d="M1846 577 c-104 -105 -185 -192 -179 -194 7 -3 289 272 392 383 2 2
-2 4 -10 3 -8 0 -99 -87 -203 -192z"/>
<path d="M7080 735 c-19 -19 -31 -35 -27 -35 4 0 23 16 43 35 19 19 31 35 26
35 -4 0 -23 -16 -42 -35z"/>
<path d="M15950 574 c-107 -107 -190 -194 -183 -194 11 0 393 375 393 386 0
14 -35 -18 -210 -192z"/>
<path d="M7406 570 c-104 -104 -183 -190 -175 -190 19 0 372 356 367 370 -2 6
-88 -75 -192 -180z"/>
<path d="M4333 550 c-93 -94 -165 -170 -159 -170 14 0 341 328 334 335 -2 3
-81 -72 -175 -165z"/>
<path d="M20195 550 c-93 -94 -163 -170 -155 -170 15 0 340 318 340 333 0 19
-27 -5 -185 -163z"/>
<path d="M1883 544 c-90 -90 -158 -164 -153 -164 6 0 85 74 175 165 91 91 159
165 152 164 -6 0 -85 -75 -174 -165z"/>
<path d="M7452 548 c-89 -89 -159 -164 -156 -167 2 -3 78 68 166 157 89 88
160 163 157 166 -3 3 -78 -68 -167 -156z"/>
<path d="M15984 544 c-89 -90 -157 -164 -152 -164 6 0 84 74 175 165 90 91
158 164 151 164 -7 -1 -86 -75 -174 -165z"/>
<path d="M4365 520 c-77 -77 -135 -140 -130 -140 13 0 281 268 274 274 -3 3
-68 -58 -144 -134z"/>
<path d="M7485 520 c-77 -77 -135 -140 -130 -140 6 0 73 63 150 140 77 77 135
140 130 140 -6 0 -73 -63 -150 -140z"/>
<path d="M20225 519 c-77 -77 -132 -139 -123 -137 20 4 278 253 278 268 0 5
-3 10 -8 10 -4 0 -70 -63 -147 -141z"/>
<path d="M1913 518 c-73 -73 -128 -135 -122 -137 11 -3 242 219 260 252 21 37
-9 12 -138 -115z"/>
<path d="M16022 518 c-73 -72 -130 -134 -127 -137 3 -3 67 57 143 132 75 75
132 137 126 137 -6 0 -70 -59 -142 -132z"/>
<path d="M7521 496 c-62 -62 -109 -116 -103 -119 8 -6 232 213 232 227 0 17
-26 -4 -129 -108z"/>
<path d="M20261 489 c-73 -70 -108 -109 -95 -108 19 2 222 204 213 213 -2 3
-56 -45 -118 -105z"/>
<path d="M1937 480 c-54 -55 -92 -100 -85 -100 8 0 58 45 113 100 55 55 93
100 85 100 -8 0 -59 -45 -113 -100z"/>
<path d="M4387 483 c-53 -53 -94 -99 -91 -102 2 -3 51 41 107 97 56 56 97 102
91 102 -6 0 -54 -44 -107 -97z"/>
<path d="M16045 484 c-53 -53 -93 -99 -90 -102 3 -3 52 40 108 96 56 56 97
102 90 102 -6 0 -55 -43 -108 -96z"/>
<path d="M7561 475 c-52 -52 -87 -95 -80 -95 14 0 189 169 189 183 0 18 -23 0
-109 -88z"/>
<path d="M4425 459 c-44 -43 -75 -79 -70 -79 13 0 161 148 154 154 -2 2 -40
-31 -84 -75z"/>
<path d="M20343 503 c-17 -15 -52 -48 -79 -72 -27 -25 -43 -46 -37 -48 12 -4
158 135 150 143 -2 3 -18 -8 -34 -23z"/>
<path d="M1977 454 c-37 -37 -65 -69 -62 -72 3 -4 38 26 78 66 39 40 67 72 62
72 -6 0 -41 -30 -78 -66z"/>
<path d="M7605 450 c-38 -39 -65 -70 -59 -70 13 0 139 128 133 134 -3 3 -36
-26 -74 -64z"/>
<path d="M16075 450 c-38 -38 -65 -70 -59 -70 5 0 41 32 79 70 38 39 65 70 59
70 -5 0 -41 -31 -79 -70z"/>
<path d="M2010 425 c-27 -28 -38 -45 -29 -45 14 0 45 29 78 73 26 34 -6 16
-49 -28z"/>
<path d="M4460 425 c-24 -25 -40 -45 -34 -45 13 0 89 78 83 85 -3 2 -25 -16
-49 -40z"/>
<path d="M7640 425 c-24 -25 -39 -45 -33 -45 12 0 93 74 93 84 0 15 -19 2 -60
-39z"/>
<path d="M16120 425 c-24 -25 -40 -45 -34 -45 13 0 89 78 83 85 -3 2 -25 -16
-49 -40z"/>
<path d="M20321 426 c-24 -24 -38 -46 -33 -50 11 -6 92 68 92 84 0 19 -16 10
-59 -34z"/>
<path d="M7680 405 c-13 -14 -19 -25 -14 -25 12 0 26 11 43 33 21 26 -2 20
-29 -8z"/>
<path d="M2040 395 c-10 -12 -10 -15 3 -15 8 0 17 7 21 15 3 8 2 15 -3 15 -5
0 -14 -7 -21 -15z"/>
<path d="M20349 394 c-12 -14 -11 -16 5 -13 11 2 21 10 24 17 5 17 -13 15 -29
-4z"/>
</g>
</svg>
