<?xml version="1.0" standalone="no"?>
<!DOCTYPE svg PUBLIC "-//W3C//DTD SVG 20010904//EN"
 "http://www.w3.org/TR/2001/REC-SVG-20010904/DTD/svg10.dtd">
<svg version="1.0" xmlns="http://www.w3.org/2000/svg"
 width="2500.000000pt" height="2500.000000pt" viewBox="0 0 2500.000000 2500.000000"
 preserveAspectRatio="xMidYMid meet">

<g transform="translate(0.000000,2500.000000) scale(0.100000,-0.100000)"
fill="#000000" stroke="none">
<path d="M15451 20912 c-503 -1549 -916 -2823 -918 -2829 -4 -10 109 -13 541
-13 l545 0 83 257 c46 142 153 474 238 738 l156 480 206 3 206 2 862 866 c508
511 860 871 857 878 -25 66 -781 2405 -781 2419 0 16 -33 17 -541 17 l-540 0
-914 -2818z m1682 408 c123 -382 228 -705 231 -717 l7 -23 -471 0 c-373 0
-471 3 -467 13 2 6 107 332 233 724 126 391 232 709 236 705 3 -4 107 -320
231 -702z"/>
<path d="M5520 20895 l0 -2825 248 0 247 1 520 513 520 513 -145 6 c-80 4
-191 7 -247 7 l-103 0 0 2305 0 2305 -520 0 -520 0 0 -2825z"/>
<path d="M10020 20895 l0 -2825 253 0 252 0 515 515 515 515 -248 0 -247 0 2
628 3 627 1003 3 1002 2 0 515 0 515 -1005 0 -1005 0 0 650 0 650 1130 0 1130
0 0 515 0 515 -1650 0 -1650 0 0 -2825z"/>
<path d="M17395 20390 c-753 -753 -837 -840 -810 -840 26 0 128 98 853 823
628 628 821 827 816 840 -3 9 -9 17 -13 17 -3 0 -384 -378 -846 -840z"/>
<path d="M17475 20349 c-609 -609 -794 -799 -774 -797 19 2 232 207 808 778
692 687 781 779 774 798 -7 19 -95 -65 -808 -779z"/>
<path d="M17540 20305 c-678 -678 -752 -755 -725 -755 26 0 118 88 763 733
535 535 732 738 732 755 0 12 -3 22 -8 22 -4 0 -347 -340 -762 -755z"/>
<path d="M17610 20258 c-623 -619 -711 -709 -683 -706 26 2 137 107 722 687
416 411 691 690 691 701 0 11 -3 21 -7 23 -5 3 -330 -315 -723 -705z"/>
<path d="M17685 20214 c-602 -597 -667 -664 -640 -664 26 0 107 77 678 648
356 356 647 652 647 659 0 6 -3 14 -8 17 -4 2 -309 -294 -677 -660z"/>
<path d="M17760 20174 c-480 -480 -619 -625 -599 -622 19 2 186 162 634 605
535 530 607 605 599 623 -8 18 -80 -51 -634 -606z"/>
<path d="M17825 20130 c-534 -534 -577 -580 -548 -580 28 0 86 56 584 561 489
495 585 599 552 599 -4 0 -269 -261 -588 -580z"/>
<path d="M17899 20084 c-420 -421 -528 -535 -507 -532 20 2 154 130 542 516
284 282 516 519 516 527 0 8 -4 16 -8 19 -5 3 -249 -236 -543 -530z"/>
<path d="M17970 20045 c-447 -447 -492 -495 -465 -495 26 0 89 59 503 473 417
417 472 476 465 495 -7 19 -60 -30 -503 -473z"/>
<path d="M18042 19998 c-412 -409 -450 -449 -419 -446 29 3 85 55 459 433 314
317 424 434 419 447 -4 12 -117 -94 -459 -434z"/>
<path d="M18111 19954 c-220 -223 -401 -411 -401 -419 0 -8 4 -16 9 -19 5 -3
189 177 410 400 364 368 431 444 392 444 -5 0 -189 -182 -410 -406z"/>
<path d="M18143 19871 c-222 -225 -403 -416 -403 -425 0 -8 4 -17 8 -20 5 -3
191 178 414 402 366 366 405 409 397 430 -4 12 -10 22 -11 22 -2 0 -184 -184
-405 -409z"/>
<path d="M18169 19774 c-329 -327 -406 -409 -401 -426 4 -17 75 50 413 388
357 357 436 444 402 444 -5 0 -191 -183 -414 -406z"/>
<path d="M18196 19691 c-315 -315 -406 -412 -400 -424 7 -12 99 74 417 388
224 222 407 411 407 419 0 8 -4 17 -8 20 -5 3 -192 -179 -416 -403z"/>
<path d="M18228 19612 c-349 -348 -407 -410 -402 -429 4 -13 9 -23 13 -23 3 0
187 184 409 409 343 350 401 412 394 430 -6 18 -60 -32 -414 -387z"/>
<path d="M18251 19519 c-359 -363 -403 -411 -395 -430 9 -19 50 21 415 393
280 285 404 418 401 431 -2 9 -7 17 -10 16 -4 -1 -189 -185 -411 -410z"/>
<path d="M18287 19432 c-224 -224 -407 -412 -407 -419 0 -6 4 -14 8 -17 5 -3
191 178 414 402 313 314 405 411 399 424 -5 14 -93 -69 -414 -390z"/>
<path d="M18316 19351 c-369 -368 -434 -441 -395 -441 7 0 193 181 415 403
341 340 401 405 395 422 -7 17 -64 -36 -415 -384z"/>
<path d="M18342 19257 c-350 -350 -428 -437 -394 -437 4 0 188 181 410 403
350 350 428 437 394 437 -4 0 -188 -181 -410 -403z"/>
<path d="M18366 19171 c-309 -309 -405 -411 -400 -424 3 -9 10 -17 14 -17 14
0 810 811 810 825 0 8 -4 16 -8 19 -5 3 -192 -178 -416 -403z"/>
<path d="M18396 19081 c-314 -314 -406 -412 -400 -424 7 -11 99 74 418 390
350 346 407 407 400 424 -8 17 -63 -35 -418 -390z"/>
<path d="M18422 18997 c-306 -306 -403 -409 -400 -424 2 -16 93 68 416 386
318 313 412 410 406 424 -3 9 -9 17 -13 17 -3 0 -188 -182 -409 -403z"/>
<path d="M18452 18912 c-328 -323 -412 -411 -407 -425 4 -10 11 -17 16 -15 5
2 191 185 414 408 321 320 404 408 398 421 -6 14 -89 -63 -421 -389z"/>
<path d="M18476 18821 c-362 -362 -409 -412 -400 -431 8 -18 52 22 422 393
311 311 411 417 406 430 -3 9 -9 17 -13 17 -3 0 -190 -184 -415 -409z"/>
<path d="M18506 18735 c-374 -370 -409 -406 -400 -426 10 -21 40 7 417 381
307 304 407 409 407 426 0 13 -3 24 -7 23 -5 0 -192 -182 -417 -404z"/>
<path d="M6600 18585 c-419 -419 -510 -515 -490 -515 20 0 135 110 540 515
419 419 510 515 490 515 -20 0 -135 -110 -540 -515z"/>
<path d="M6710 18585 c-435 -435 -511 -515 -488 -515 21 0 121 94 545 515 468
465 515 515 488 515 -26 0 -93 -62 -545 -515z"/>
<path d="M6830 18585 c-419 -419 -510 -515 -490 -515 20 0 135 110 540 515
419 419 510 515 490 515 -20 0 -135 -110 -540 -515z"/>
<path d="M6940 18585 c-419 -419 -510 -515 -490 -515 20 0 135 110 540 515
419 419 510 515 490 515 -20 0 -135 -110 -540 -515z"/>
<path d="M7050 18585 c-464 -464 -512 -515 -485 -515 26 0 94 64 545 515 464
464 512 515 485 515 -26 0 -94 -64 -545 -515z"/>
<path d="M7170 18584 c-395 -395 -509 -515 -489 -512 19 2 166 142 545 515
467 462 516 513 489 513 -26 0 -93 -63 -545 -516z"/>
<path d="M7290 18585 c-419 -419 -510 -515 -490 -515 20 0 135 110 540 515
419 419 510 515 490 515 -20 0 -135 -110 -540 -515z"/>
<path d="M7400 18585 c-464 -464 -512 -515 -485 -515 26 0 94 64 545 515 464
464 512 515 485 515 -26 0 -94 -64 -545 -515z"/>
<path d="M7510 18585 c-464 -464 -512 -515 -485 -515 26 0 94 64 545 515 464
464 512 515 485 515 -26 0 -94 -64 -545 -515z"/>
<path d="M7630 18585 c-419 -419 -510 -515 -490 -515 20 0 135 110 540 515
419 419 510 515 490 515 -20 0 -135 -110 -540 -515z"/>
<path d="M7740 18585 c-464 -464 -512 -515 -485 -515 26 0 94 64 545 515 464
464 512 515 485 515 -26 0 -94 -64 -545 -515z"/>
<path d="M7860 18585 c-461 -462 -511 -515 -485 -515 26 0 97 67 545 515 462
462 512 515 485 515 -26 0 -96 -67 -545 -515z"/>
<path d="M7980 18585 c-419 -419 -510 -515 -490 -515 20 0 135 110 540 515
419 419 510 515 490 515 -20 0 -135 -110 -540 -515z"/>
<path d="M8090 18585 c-464 -464 -512 -515 -485 -515 26 0 94 64 545 515 464
464 512 515 485 515 -26 0 -94 -64 -545 -515z"/>
<path d="M8210 18585 c-419 -419 -510 -515 -490 -515 20 0 135 110 540 515
419 419 510 515 490 515 -20 0 -135 -110 -540 -515z"/>
<path d="M11100 18585 c-464 -464 -512 -515 -485 -515 26 0 94 64 545 515 464
464 512 515 485 515 -26 0 -94 -64 -545 -515z"/>
<path d="M11220 18585 c-419 -419 -510 -515 -490 -515 20 0 135 110 540 515
419 419 510 515 490 515 -20 0 -135 -110 -540 -515z"/>
<path d="M11330 18585 c-463 -463 -512 -515 -485 -515 26 0 96 66 545 515 465
465 512 515 485 515 -26 0 -93 -63 -545 -515z"/>
<path d="M11440 18585 c-464 -464 -512 -515 -485 -515 26 0 94 64 545 515 464
464 512 515 485 515 -26 0 -94 -64 -545 -515z"/>
<path d="M11560 18585 c-419 -419 -510 -515 -490 -515 20 0 135 110 540 515
419 419 510 515 490 515 -20 0 -135 -110 -540 -515z"/>
<path d="M11675 18585 c-470 -465 -517 -514 -490 -515 27 0 91 61 545 515 413
413 510 515 490 515 -19 -1 -143 -118 -545 -515z"/>
<path d="M11790 18585 c-464 -464 -512 -515 -485 -515 26 0 94 64 545 515 464
464 512 515 485 515 -26 0 -94 -64 -545 -515z"/>
<path d="M11910 18585 c-419 -419 -510 -515 -490 -515 20 0 135 110 540 515
419 419 510 515 490 515 -20 0 -135 -110 -540 -515z"/>
<path d="M12020 18585 c-464 -464 -512 -515 -485 -515 26 0 94 64 545 515 464
464 512 515 485 515 -26 0 -94 -64 -545 -515z"/>
<path d="M12130 18585 c-464 -464 -512 -515 -485 -515 26 0 94 64 545 515 464
464 512 515 485 515 -26 0 -94 -64 -545 -515z"/>
<path d="M12250 18585 c-427 -427 -511 -515 -489 -515 20 0 129 102 545 514
471 467 516 515 489 515 -27 1 -90 -58 -545 -514z"/>
<path d="M12370 18585 c-419 -419 -510 -515 -490 -515 20 0 135 110 540 515
419 419 510 515 490 515 -20 0 -135 -110 -540 -515z"/>
<path d="M12480 18585 c-464 -464 -512 -515 -485 -515 26 0 94 64 545 515 464
464 512 515 485 515 -26 0 -94 -64 -545 -515z"/>
<path d="M12600 18585 c-419 -419 -510 -515 -490 -515 20 0 135 110 540 515
419 419 510 515 490 515 -20 0 -135 -110 -540 -515z"/>
<path d="M12710 18585 c-464 -464 -512 -515 -485 -515 26 0 94 64 545 515 464
464 512 515 485 515 -26 0 -94 -64 -545 -515z"/>
<path d="M8305 18570 c-435 -435 -496 -500 -472 -500 24 0 104 75 508 477 360
358 479 482 479 500 0 12 -3 23 -8 23 -4 0 -232 -225 -507 -500z"/>
<path d="M12815 18570 c-407 -407 -495 -500 -475 -500 37 0 983 947 978 979
-2 17 -97 -72 -503 -479z"/>
<path d="M18535 18647 c-368 -363 -407 -404 -400 -426 7 -22 41 10 416 385
225 225 409 414 409 421 0 6 -4 14 -8 17 -5 3 -192 -176 -417 -397z"/>
<path d="M18567 18566 c-224 -221 -407 -409 -407 -418 0 -9 4 -19 8 -22 5 -3
189 176 411 398 304 304 402 408 399 423 -2 16 -92 -67 -411 -381z"/>
<path d="M8369 18517 c-342 -346 -432 -443 -416 -445 28 -5 867 832 867 865 0
13 -3 23 -7 23 -5 0 -204 -199 -444 -443z"/>
<path d="M12870 18515 c-402 -402 -442 -445 -415 -445 26 0 84 54 448 418 369
368 418 422 415 445 -3 25 -46 -15 -448 -418z"/>
<path d="M18597 18482 c-218 -218 -397 -400 -397 -405 0 -4 10 -7 23 -7 32 0
787 756 787 788 0 12 -3 22 -8 22 -4 0 -186 -179 -405 -398z"/>
<path d="M8420 18455 c-357 -357 -383 -385 -353 -385 28 0 69 38 392 367 318
323 388 403 353 403 -4 0 -180 -173 -392 -385z"/>
<path d="M12930 18455 c-349 -349 -382 -385 -355 -385 26 0 77 46 388 358 314
314 358 362 355 386 -3 24 -40 -10 -388 -359z"/>
<path d="M18666 18434 c-284 -289 -353 -364 -335 -364 18 0 109 85 367 343
188 188 342 350 342 359 0 9 -3 19 -7 21 -5 2 -169 -159 -367 -359z"/>
<path d="M8480 18395 c-296 -296 -322 -325 -295 -325 27 0 70 39 333 303 214
214 302 309 302 325 0 12 -3 22 -8 22 -4 0 -153 -146 -332 -325z"/>
<path d="M12985 18394 c-298 -293 -327 -324 -300 -324 26 0 71 41 333 303 228
228 303 309 300 324 -2 16 -74 -49 -333 -303z"/>
<path d="M18735 18390 c-291 -291 -317 -320 -290 -320 26 0 70 40 329 299 264
264 299 302 290 320 -8 19 -42 -12 -329 -299z"/>
<path d="M18810 18345 c-227 -227 -270 -275 -250 -275 36 0 541 507 531 532
-5 14 -64 -40 -281 -257z"/>
<path d="M8535 18340 c-247 -247 -267 -270 -240 -270 26 0 64 34 278 248 176
176 247 254 247 270 0 12 -3 22 -8 22 -4 0 -129 -121 -277 -270z"/>
<path d="M13045 18340 c-219 -219 -265 -270 -245 -269 19 0 87 60 273 243 218
213 248 246 245 269 -3 25 -26 4 -273 -243z"/>
<path d="M18881 18303 c-186 -191 -218 -229 -200 -231 18 -3 67 40 231 205
144 145 208 216 208 231 0 12 -4 22 -9 22 -5 0 -109 -102 -230 -227z"/>
<path d="M8600 18285 c-179 -179 -211 -215 -190 -215 37 0 413 377 408 409 -2
18 -41 -16 -218 -194z"/>
<path d="M13100 18285 c-198 -198 -212 -215 -185 -215 26 0 58 28 218 188 163
163 188 193 185 216 -3 24 -21 8 -218 -189z"/>
<path d="M18952 18259 c-168 -172 -181 -189 -155 -189 24 0 55 28 195 174 141
146 165 176 155 189 -10 13 -39 -12 -195 -174z"/>
<path d="M8650 18225 c-145 -145 -153 -155 -124 -155 25 0 50 20 162 133 88
89 132 141 132 155 0 12 -3 22 -8 22 -4 0 -77 -70 -162 -155z"/>
<path d="M13156 18224 c-144 -140 -156 -154 -130 -154 24 0 53 24 163 134 97
98 132 138 129 153 -2 17 -34 -9 -162 -133z"/>
<path d="M19025 18210 c-119 -119 -136 -140 -115 -140 19 0 56 31 148 123 106
106 143 157 114 157 -4 0 -70 -63 -147 -140z"/>
<path d="M8710 18169 l-105 -99 36 0 c31 0 43 8 108 80 46 51 71 87 69 99 -2
15 -26 -3 -108 -80z"/>
<path d="M19094 18169 c-94 -95 -97 -99 -69 -99 25 0 46 15 108 78 71 71 90
103 69 116 -5 3 -53 -40 -108 -95z"/>
<path d="M13220 18165 c-83 -83 -91 -95 -70 -95 36 0 173 138 168 169 -3 18
-17 8 -98 -74z"/>
<path d="M19165 18130 l-59 -60 30 0 c43 0 112 70 98 100 -8 19 -13 16 -69
-40z"/>
<path d="M8770 18116 l-44 -46 30 0 c39 0 67 29 62 65 -3 26 -3 26 -48 -19z"/>
<path d="M13275 18111 l-39 -41 31 0 c37 0 56 20 51 55 l-3 26 -40 -40z"/>
<path d="M19240 18085 c-10 -13 -9 -15 8 -15 15 0 20 5 16 15 -4 8 -7 15 -9
15 -1 0 -8 -7 -15 -15z"/>
<path d="M6061 14983 c-752 -747 -833 -831 -830 -856 4 -25 78 47 859 828 704
704 850 855 829 855 -21 0 -187 -161 -858 -827z"/>
<path d="M6112 14917 c-712 -712 -893 -898 -890 -916 2 -17 179 154 923 893
831 826 917 915 890 915 -27 1 -128 -97 -923 -892z"/>
<path d="M6172 14861 c-831 -825 -953 -951 -950 -973 3 -23 119 89 981 948
832 829 974 974 950 973 -23 0 -184 -155 -981 -948z"/>
<path d="M6227 14805 c-846 -842 -1008 -1008 -1005 -1028 3 -21 159 131 1038
1004 922 917 1032 1028 1005 1028 -26 0 -153 -122 -1038 -1004z"/>
<path d="M6286 14748 c-965 -961 -1068 -1066 -1065 -1091 4 -25 100 68 1094
1063 881 881 1085 1090 1065 1090 -20 0 -245 -219 -1094 -1062z"/>
<path d="M6342 14690 c-941 -938 -1123 -1123 -1120 -1143 3 -21 179 151 1152
1119 995 991 1145 1144 1120 1144 -25 -1 -193 -164 -1152 -1120z"/>
<path d="M6397 14632 c-1045 -1045 -1178 -1182 -1175 -1205 3 -25 129 99 1208
1178 1078 1078 1202 1205 1175 1205 -27 0 -168 -138 -1208 -1178z"/>
<path d="M6459 14572 c-1062 -1058 -1241 -1241 -1238 -1262 4 -21 177 148
1269 1237 1093 1091 1261 1262 1237 1263 -23 0 -209 -181 -1268 -1238z"/>
<path d="M7270 15269 c-498 -493 -540 -537 -483 -507 52 28 145 115 570 541
408 407 503 507 483 507 -19 -1 -149 -123 -570 -541z"/>
<path d="M10740 13858 c0 -1237 4 -1995 10 -2068 50 -560 353 -1058 824 -1354
225 -141 460 -225 729 -261 142 -18 996 -22 1155 -4 184 20 354 63 512 131
546 232 926 699 1052 1294 l23 109 3 1465 2 1465 -515 -515 -515 -515 0 -695
c0 -416 -4 -720 -10 -757 -25 -152 -89 -316 -175 -448 -54 -84 -245 -272 -335
-330 -370 -240 -825 -240 -1196 2 -211 137 -388 361 -462 586 -65 194 -62 103
-62 2065 l0 1782 -520 0 -520 0 0 -1952z"/>
<path d="M14037 15792 c-17 -19 -23 -62 -9 -62 4 0 26 18 47 40 l39 40 -30 0
c-17 0 -38 -8 -47 -18z"/>
<path d="M14097 15732 c-67 -67 -95 -112 -69 -112 4 0 50 43 102 95 83 83 91
95 70 95 -18 0 -47 -22 -103 -78z"/>
<path d="M14152 15677 c-90 -91 -132 -139 -132 -155 0 -12 3 -22 8 -22 4 0 77
70 162 155 144 145 153 155 125 155 -25 0 -52 -21 -163 -133z"/>
<path d="M14209 15623 c-142 -140 -189 -192 -189 -210 0 -14 4 -23 9 -21 5 2
104 96 221 211 199 194 210 207 181 207 -28 0 -56 -24 -222 -187z"/>
<path d="M14273 15562 c-179 -176 -253 -254 -253 -270 0 -12 3 -22 8 -22 4 0
129 122 277 270 220 220 265 270 245 270 -19 -1 -87 -62 -277 -248z"/>
<path d="M14327 15502 c-233 -233 -308 -314 -305 -329 2 -16 74 50 337 308
299 294 331 329 305 329 -25 0 -73 -44 -337 -308z"/>
<path d="M14382 15447 c-261 -261 -362 -368 -362 -385 0 -12 3 -22 8 -22 4 0
180 173 392 385 349 349 382 385 355 385 -26 0 -77 -47 -393 -363z"/>
<path d="M14442 15387 c-325 -325 -423 -429 -420 -444 2 -17 97 72 451 423
388 385 444 444 420 444 -24 0 -97 -69 -451 -423z"/>
<path d="M14497 15332 c-346 -346 -477 -483 -477 -500 0 -12 3 -22 8 -22 4 0
232 225 507 500 451 451 497 500 470 500 -26 0 -90 -60 -508 -478z"/>
<path d="M16270 12985 l0 -2825 246 0 246 0 519 513 520 512 -248 5 -248 5 0
625 0 625 1003 3 1002 2 0 515 0 515 -1005 0 -1005 0 0 650 0 650 1130 0 1130
0 0 515 0 515 -1645 0 -1645 0 0 -2825z"/>
<path d="M6004 15038 c-525 -526 -764 -772 -768 -790 -4 -16 -3 -28 1 -28 5 0
364 356 798 790 709 709 787 790 760 790 -26 0 -121 -91 -791 -762z"/>
<path d="M7446 15329 c-262 -260 -475 -474 -472 -476 18 -18 127 81 536 486
395 390 461 460 439 461 -22 0 -112 -85 -503 -471z"/>
<path d="M7573 15344 c-401 -398 -444 -445 -413 -440 30 5 100 71 475 446 379
379 436 440 413 440 -23 0 -104 -75 -475 -446z"/>
<path d="M6282 15431 c-197 -192 -506 -500 -688 -683 -278 -279 -333 -339
-338 -368 -6 -31 78 50 709 680 393 393 715 716 715 717 0 2 -9 3 -21 3 -14 0
-138 -115 -377 -349z"/>
<path d="M7694 15349 c-350 -350 -424 -429 -404 -429 37 0 881 845 852 852
-15 4 -109 -84 -448 -423z"/>
<path d="M14533 15258 c-426 -427 -513 -518 -513 -541 0 -15 3 -27 8 -27 4 0
236 232 515 515 434 440 508 518 505 540 -3 22 -66 -38 -515 -487z"/>
<path d="M6485 15743 c-11 -3 -280 -264 -598 -581 -410 -410 -580 -587 -588
-610 -6 -18 -9 -35 -7 -37 2 -2 283 275 623 615 341 341 613 619 605 619 -8
-1 -24 -3 -35 -6z"/>
<path d="M7802 15337 l-414 -414 89 -6 c105 -7 247 -43 363 -91 281 -118 542
-383 652 -661 l33 -85 503 0 502 0 0 25 c0 54 -22 224 -40 313 -99 477 -430
925 -867 1171 -109 61 -355 161 -397 161 -6 0 -197 -186 -424 -413z"/>
<path d="M6315 15674 c-54 -20 -939 -901 -956 -952 -6 -18 -9 -35 -7 -37 2 -2
231 223 508 500 278 278 503 505 500 504 -3 0 -23 -7 -45 -15z"/>
<path d="M14533 15138 c-370 -371 -513 -520 -513 -536 0 -12 3 -22 8 -22 4 0
236 229 515 508 449 449 508 512 505 536 -3 24 -53 -24 -515 -486z"/>
<path d="M6080 15555 c-30 -19 -170 -147 -310 -284 -210 -205 -261 -260 -289
-312 -32 -61 -17 -48 313 281 190 190 346 346 346 347 0 5 -5 3 -60 -32z"/>
<path d="M14533 15018 c-373 -373 -513 -519 -513 -536 0 -12 3 -22 6 -22 4 0
236 229 516 509 443 443 509 513 506 535 -3 23 -60 -30 -515 -486z"/>
<path d="M14533 14908 c-373 -373 -513 -519 -513 -536 0 -12 3 -22 8 -22 4 0
236 229 515 508 448 448 508 512 505 536 -3 24 -54 -24 -515 -486z"/>
<path d="M14532 14787 c-408 -408 -513 -518 -510 -536 2 -17 99 75 516 492
408 408 513 518 510 536 -2 17 -99 -75 -516 -492z"/>
<path d="M14533 14678 c-373 -373 -513 -519 -513 -536 0 -12 3 -22 7 -22 3 0
235 229 515 509 440 440 509 513 506 536 -3 22 -63 -34 -515 -487z"/>
<path d="M14533 14559 c-361 -362 -513 -522 -513 -537 0 -12 3 -22 8 -22 4 0
236 232 515 515 409 414 508 519 505 537 -2 19 -92 -67 -515 -493z"/>
<path d="M14533 14438 c-449 -449 -540 -548 -505 -548 4 0 236 229 515 508
404 404 508 513 505 531 -2 17 -99 -75 -515 -491z"/>
<path d="M14533 14328 c-373 -373 -513 -519 -513 -536 0 -12 3 -22 8 -22 4 0
236 229 515 510 439 439 508 512 505 535 -3 22 -63 -34 -515 -487z"/>
<path d="M14533 14218 c-370 -371 -513 -520 -513 -536 0 -12 3 -22 8 -22 4 0
236 229 515 508 449 449 508 512 505 536 -3 24 -53 -24 -515 -486z"/>
<path d="M5787 13792 c-497 -497 -567 -571 -567 -597 0 -27 54 24 538 508 427
427 544 550 570 597 18 33 31 60 30 60 -2 0 -258 -255 -571 -568z"/>
<path d="M5726 13611 c-390 -390 -507 -513 -504 -528 5 -31 995 947 1008 996
5 19 8 36 7 37 -2 2 -231 -225 -511 -505z"/>
<path d="M5706 13478 c-421 -416 -488 -486 -485 -508 4 -22 62 32 485 453 379
376 483 484 486 508 3 16 4 29 3 29 -1 0 -221 -217 -489 -482z"/>
<path d="M5693 13355 c-343 -349 -469 -483 -471 -502 -3 -21 101 76 472 442
440 433 476 471 476 501 0 19 -2 34 -4 34 -2 0 -215 -214 -473 -475z"/>
<path d="M5692 13231 l-474 -466 5 -525 c5 -562 5 -568 62 -775 90 -330 311
-673 572 -887 254 -208 528 -334 858 -395 106 -20 983 -30 1175 -14 237 20
433 73 637 172 515 252 866 717 979 1299 14 71 17 177 21 628 l5 542 -1106 0
-1106 0 0 -375 0 -375 625 0 626 0 -7 -37 c-13 -75 -65 -217 -111 -306 -120
-232 -342 -445 -575 -551 -384 -175 -847 -132 -1183 108 -255 183 -415 415
-498 721 -21 78 -21 101 -27 891 l-5 812 -473 -467z"/>
<path d="M17340 10675 c-464 -464 -512 -515 -485 -515 26 0 94 64 545 515 464
464 512 515 485 515 -26 0 -94 -64 -545 -515z"/>
<path d="M17460 10675 c-419 -419 -510 -515 -490 -515 20 0 135 110 540 515
419 419 510 515 490 515 -20 0 -135 -110 -540 -515z"/>
<path d="M17570 10675 c-464 -464 -512 -515 -485 -515 26 0 94 64 545 515 464
464 512 515 485 515 -26 0 -94 -64 -545 -515z"/>
<path d="M17690 10675 c-419 -419 -510 -515 -490 -515 20 0 135 110 540 515
419 419 510 515 490 515 -20 0 -135 -110 -540 -515z"/>
<path d="M17800 10675 c-464 -464 -512 -515 -485 -515 26 0 94 64 545 515 464
464 512 515 485 515 -26 0 -94 -64 -545 -515z"/>
<path d="M17919 10675 c-471 -470 -513 -515 -485 -515 28 0 89 58 546 515 463
463 512 515 485 515 -26 0 -95 -66 -546 -515z"/>
<path d="M18040 10675 c-419 -419 -510 -515 -490 -515 20 0 135 110 540 515
419 419 510 515 490 515 -20 0 -135 -110 -540 -515z"/>
<path d="M18150 10675 c-463 -463 -512 -515 -485 -515 26 0 96 66 545 515 465
465 512 515 485 515 -26 0 -93 -63 -545 -515z"/>
<path d="M18260 10675 c-464 -464 -512 -515 -485 -515 26 0 94 64 545 515 464
464 512 515 485 515 -26 0 -94 -64 -545 -515z"/>
<path d="M18380 10675 c-419 -419 -510 -515 -490 -515 20 0 135 110 540 515
419 419 510 515 490 515 -20 0 -135 -110 -540 -515z"/>
<path d="M18490 10675 c-464 -464 -512 -515 -485 -515 26 0 94 64 545 515 464
464 512 515 485 515 -26 0 -94 -64 -545 -515z"/>
<path d="M18610 10675 c-464 -464 -512 -515 -485 -515 26 0 94 64 545 515 464
464 512 515 485 515 -26 0 -94 -64 -545 -515z"/>
<path d="M18720 10675 c-465 -465 -512 -515 -485 -515 26 0 93 63 545 515 462
462 512 515 485 515 -26 0 -96 -67 -545 -515z"/>
<path d="M18840 10675 c-464 -464 -512 -515 -485 -515 26 0 94 64 545 515 464
464 512 515 485 515 -26 0 -94 -64 -545 -515z"/>
<path d="M18950 10675 c-464 -464 -512 -515 -485 -515 26 0 94 64 545 515 464
464 512 515 485 515 -26 0 -94 -64 -545 -515z"/>
<path d="M19055 10660 c-402 -402 -495 -500 -475 -500 19 1 134 109 503 473
430 423 479 475 475 500 -3 25 -45 -15 -503 -473z"/>
<path d="M19110 10605 c-402 -402 -442 -445 -415 -445 26 0 83 53 448 418 368
368 418 422 415 446 -3 24 -46 -17 -448 -419z"/>
<path d="M19170 10543 c-350 -348 -382 -382 -355 -383 26 0 74 44 388 358 299
299 358 363 355 383 -3 21 -56 -29 -388 -358z"/>
<path d="M19230 10485 c-267 -267 -320 -325 -300 -325 37 0 633 597 628 629
-2 17 -62 -38 -328 -304z"/>
<path d="M19285 10430 c-247 -247 -267 -270 -240 -270 26 0 64 34 273 243 212
212 243 247 240 271 -3 24 -27 2 -273 -244z"/>
<path d="M19345 10370 c-175 -175 -206 -210 -185 -210 37 0 403 367 398 399
-2 18 -40 -15 -213 -189z"/>
<path d="M19400 10315 c-131 -131 -151 -155 -130 -155 36 0 293 258 288 289
-2 18 -29 -4 -158 -134z"/>
<path d="M19460 10255 c-91 -91 -93 -95 -65 -95 44 0 168 125 163 164 -3 25
-8 21 -98 -69z"/>
<path d="M19515 10201 l-39 -41 31 0 c37 0 56 20 51 55 l-3 26 -40 -40z"/>
<path d="M6741 7884 c-190 -26 -370 -83 -552 -174 -491 -247 -827 -687 -947
-1239 l-27 -126 0 -1255 c0 -1327 -1 -1291 46 -1485 96 -389 335 -747 672
-1003 123 -94 287 -180 460 -244 l110 -40 408 408 c225 225 409 412 409 415 0
3 -37 9 -83 12 -276 22 -581 181 -773 406 -159 185 -252 379 -289 597 -14 88
-16 199 -13 969 l3 870 27 98 c129 468 511 819 984 901 402 71 831 -89 1111
-414 135 -157 215 -312 266 -515 20 -76 21 -120 26 -875 l6 -795 467 470 467
470 1 445 c0 245 -5 486 -10 535 -94 821 -721 1463 -1533 1570 -161 21 -1079
20 -1236 -1z"/>
<path d="M10730 5675 c0 -1224 3 -2225 8 -2225 4 0 238 231 520 513 l512 512
0 208 0 207 449 0 c538 0 620 9 848 90 339 121 658 409 827 750 100 199 146
406 146 662 0 412 -134 743 -425 1046 -215 226 -469 368 -775 435 -92 20 -125
21 -1102 24 l-1008 4 0 -2226z m2059 1176 c126 -39 228 -131 290 -261 31 -65
36 -86 39 -168 3 -69 0 -111 -13 -158 -30 -112 -119 -224 -226 -287 -92 -54
-122 -57 -636 -57 l-473 0 0 475 0 475 479 0 c442 0 484 -1 540 -19z"/>
<path d="M16108 7063 c-718 -718 -839 -843 -844 -873 -6 -31 98 70 865 835
479 478 871 871 871 872 0 2 -12 3 -28 3 -23 0 -160 -133 -864 -837z"/>
<path d="M16167 7002 c-698 -698 -898 -903 -895 -920 2 -16 199 174 928 898
834 829 922 919 895 920 -27 0 -130 -100 -928 -898z"/>
<path d="M16222 6947 c-523 -524 -952 -957 -952 -962 0 -6 4 -15 8 -22 5 -8
336 315 982 962 874 874 972 975 945 975 -27 0 -142 -112 -983 -953z"/>
<path d="M16292 6897 c-551 -551 -1002 -1010 -1002 -1019 0 -9 4 -19 8 -22 5
-3 467 456 1026 1019 785 791 1012 1025 994 1025 -17 0 -267 -244 -1026 -1003z"/>
<path d="M16362 6847 c-578 -578 -1052 -1057 -1052 -1064 0 -6 4 -14 8 -17 5
-3 489 476 1078 1065 862 862 1064 1069 1044 1069 -20 0 -242 -217 -1078
-1053z"/>
<path d="M16427 6802 c-837 -837 -1096 -1102 -1091 -1115 3 -9 9 -17 13 -17 3
0 508 502 1121 1115 999 999 1112 1115 1085 1115 -27 0 -158 -128 -1128 -1098z"/>
<path d="M16497 6762 c-870 -870 -1136 -1142 -1131 -1155 3 -9 9 -17 13 -17 3
0 526 520 1161 1155 1033 1033 1152 1155 1125 1155 -27 0 -163 -133 -1168
-1138z"/>
<path d="M16577 6722 c-647 -647 -1177 -1185 -1177 -1194 0 -9 4 -19 8 -22 5
-3 548 535 1208 1195 1072 1072 1196 1199 1169 1199 -27 0 -168 -137 -1208
-1178z"/>
<path d="M17340 7375 c-289 -289 -520 -525 -515 -525 42 2 144 95 594 539 276
271 501 497 501 502 0 5 -12 9 -28 9 -23 0 -113 -86 -552 -525z"/>
<path d="M16047 7116 c-672 -666 -778 -776 -775 -798 3 -22 103 74 808 773
715 710 802 799 775 798 -26 0 -131 -100 -808 -773z"/>
<path d="M17505 7419 c-415 -415 -466 -470 -435 -464 29 6 105 77 463 433 236
235 442 444 458 465 31 37 31 37 7 37 -17 0 -141 -118 -493 -471z"/>
<path d="M16708 7873 c-21 -3 -200 -179 -715 -698 -378 -381 -691 -704 -695
-716 -5 -13 -7 -28 -6 -33 2 -6 331 319 732 722 401 402 725 731 720 731 -5
-1 -21 -4 -36 -6z"/>
<path d="M17630 7434 c-396 -397 -441 -446 -410 -440 30 5 102 73 467 438 237
237 430 435 427 440 -3 4 -13 8 -22 8 -9 0 -217 -201 -462 -446z"/>
<path d="M17750 7435 c-394 -394 -423 -425 -393 -425 28 0 73 42 440 416 224
228 410 419 411 425 2 5 -5 9 -15 9 -11 0 -191 -173 -443 -425z"/>
<path d="M16555 7836 c-16 -8 -297 -281 -622 -608 -461 -461 -595 -601 -603
-628 -8 -29 107 82 630 605 352 352 640 641 640 642 0 6 -16 2 -45 -11z"/>
<path d="M17853 7424 c-380 -376 -415 -413 -388 -413 27 -1 79 48 439 408 338
338 405 409 388 414 -17 4 -101 -75 -439 -409z"/>
<path d="M17950 7405 c-367 -367 -402 -405 -375 -405 26 0 81 51 430 400 220
220 395 400 388 400 -6 0 -17 2 -25 5 -8 3 -174 -156 -418 -400z"/>
<path d="M16375 7771 c-27 -13 -193 -173 -506 -487 -384 -386 -469 -477 -483
-514 -16 -42 -3 -31 189 160 226 224 850 860 844 860 -2 0 -22 -9 -44 -19z"/>
<path d="M18047 7389 c-218 -215 -395 -395 -391 -400 3 -5 13 -9 22 -9 9 0
194 177 411 394 302 302 389 395 376 400 -9 3 -17 6 -18 6 -1 0 -181 -176
-400 -391z"/>
<path d="M18126 7351 c-296 -296 -384 -390 -370 -393 14 -3 123 98 412 381
373 366 404 400 357 401 -6 0 -185 -175 -399 -389z"/>
<path d="M18210 7325 c-211 -211 -382 -386 -380 -388 3 -2 51 -27 108 -56 57
-28 138 -75 180 -103 81 -56 230 -198 272 -261 l25 -37 562 0 562 0 -30 111
c-104 387 -342 735 -659 964 -78 55 -237 155 -249 155 -3 0 -179 -173 -391
-385z"/>
<path d="M16154 7661 c-82 -54 -623 -601 -659 -666 -22 -40 46 24 349 325 207
206 376 376 376 377 0 6 -10 1 -66 -36z"/>
<path d="M15780 7373 l-65 -68 68 65 c37 35 67 66 67 67 0 8 -10 -2 -70 -64z"/>
<path d="M15937 5972 c-273 -273 -497 -505 -497 -514 0 -9 4 -19 8 -22 5 -3
223 210 485 472 391 392 479 485 491 520 8 23 14 42 13 42 -1 0 -226 -224
-500 -498z"/>
<path d="M15931 5846 c-360 -360 -452 -458 -447 -472 10 -27 909 873 904 905
-2 17 -87 -63 -457 -433z"/>
<path d="M15950 5755 c-413 -414 -434 -436 -417 -452 16 -17 37 3 433 397 228
228 419 422 423 430 4 8 5 25 2 38 -5 19 -60 -32 -441 -413z"/>
<path d="M15980 5665 c-378 -378 -413 -416 -399 -430 15 -15 52 20 420 395
356 362 434 450 402 450 -4 0 -195 -187 -423 -415z"/>
<path d="M16025 5590 c-319 -319 -397 -402 -387 -412 10 -10 92 67 407 382
345 345 422 430 387 430 -4 0 -187 -180 -407 -400z"/>
<path d="M16071 5526 c-232 -232 -391 -398 -387 -405 4 -6 13 -11 19 -11 7 0
187 175 400 388 294 294 386 392 381 405 -3 9 -9 17 -13 17 -3 0 -183 -177
-400 -394z"/>
<path d="M16126 5461 c-310 -311 -385 -390 -374 -399 11 -9 92 67 402 377 310
311 385 390 374 399 -11 9 -92 -67 -402 -377z"/>
<path d="M16182 5407 c-311 -311 -381 -386 -369 -395 11 -9 87 61 398 367 347
342 383 381 369 395 -14 14 -52 -21 -398 -367z"/>
<path d="M16245 5354 c-207 -211 -376 -386 -374 -388 18 -15 209 -124 264
-151 91 -44 253 -99 363 -125 193 -45 274 -52 702 -60 495 -9 590 -22 805
-107 135 -54 193 -90 270 -167 116 -117 168 -252 168 -431 1 -172 -54 -302
-176 -424 -311 -310 -760 -432 -1163 -315 -236 68 -467 224 -626 422 l-50 62
-559 0 c-441 0 -559 -3 -559 -12 0 -29 53 -209 87 -293 92 -234 227 -430 425
-620 267 -256 573 -410 938 -472 124 -21 1025 -31 1195 -13 627 65 1156 426
1430 978 329 662 209 1420 -292 1847 -165 141 -382 264 -589 333 -252 85 -460
112 -875 112 -158 0 -333 5 -390 11 -231 23 -452 91 -585 178 l-31 21 -378
-386z"/>
<path d="M9047 4825 c-353 -358 -468 -480 -465 -495 2 -16 108 84 471 448 409
409 468 472 465 495 -3 23 -54 -25 -471 -448z"/>
<path d="M9043 4708 c-413 -413 -473 -477 -473 -503 0 -27 22 -8 256 225 468
467 696 707 692 730 -2 16 -104 -81 -475 -452z"/>
<path d="M9033 4578 c-369 -369 -485 -491 -493 -517 -5 -19 -9 -36 -7 -37 1
-1 224 223 495 497 374 378 493 503 490 519 -2 16 -109 -86 -485 -462z"/>
<path d="M9008 4442 c-348 -351 -513 -523 -527 -553 -12 -23 -20 -44 -18 -45
2 -2 240 234 531 525 472 472 527 531 524 555 -3 26 -47 -16 -510 -482z"/>
<path d="M8930 4242 c-322 -323 -614 -624 -650 -668 -36 -43 -108 -114 -160
-156 -52 -42 -340 -322 -640 -622 -443 -443 -540 -546 -520 -546 37 0 2563
2527 2558 2559 -2 17 -113 -89 -588 -567z"/>
<path d="M8280 3485 c-1104 -1104 -1232 -1235 -1205 -1235 27 0 171 141 1238
1208 1072 1072 1208 1212 1205 1235 -3 25 -132 -102 -1238 -1208z"/>
<path d="M9250 4343 c-145 -147 -674 -679 -1175 -1181 -802 -804 -906 -913
-878 -910 28 3 186 158 1178 1155 991 997 1146 1156 1143 1178 -3 23 -33 -4
-268 -242z"/>
<path d="M8395 3370 c-999 -999 -1116 -1120 -1090 -1120 26 0 161 131 1123
1093 971 971 1093 1097 1090 1121 -3 24 -119 -89 -1123 -1094z"/>
<path d="M11250 3896 c-397 -396 -516 -520 -518 -542 -3 -22 97 72 517 486
442 436 521 518 521 542 0 15 -1 28 -2 28 -2 0 -235 -232 -518 -514z"/>
<path d="M8455 3310 c-855 -855 -1055 -1060 -1035 -1060 37 0 2103 2067 2098
2099 -2 17 -207 -183 -1063 -1039z"/>
<path d="M11248 3780 c-397 -393 -518 -518 -518 -536 0 -13 3 -24 8 -24 4 0
238 231 520 513 421 421 513 518 510 537 -2 19 -86 -59 -520 -490z"/>
<path d="M8510 3255 c-900 -900 -1002 -1005 -975 -1005 27 0 145 115 1008 978
867 867 978 982 975 1006 -3 24 -107 -78 -1008 -979z"/>
<path d="M11247 3666 c-461 -454 -518 -514 -515 -539 3 -24 52 22 521 490 403
403 517 522 515 539 -2 17 -107 -81 -521 -490z"/>
<path d="M8570 3195 c-763 -763 -940 -945 -920 -945 37 0 1873 1837 1868 1869
-2 17 -184 -160 -948 -924z"/>
<path d="M11248 3553 c-452 -452 -518 -522 -518 -548 0 -27 53 23 521 491 460
460 520 524 517 548 -3 24 -53 -24 -520 -491z"/>
<path d="M8632 3144 c-715 -720 -878 -890 -861 -892 18 -3 144 118 616 590
880 879 1135 1142 1131 1169 -2 18 -167 -143 -886 -867z"/>
<path d="M11246 3430 c-430 -427 -518 -519 -515 -538 3 -20 82 54 523 490 445
440 518 517 515 538 -4 22 -68 -39 -523 -490z"/>
<path d="M8689 3085 c-747 -747 -822 -825 -795 -825 28 0 119 88 823 793 642
641 794 798 799 825 4 17 5 32 3 32 -2 0 -376 -371 -830 -825z"/>
<path d="M11246 3318 c-463 -459 -518 -516 -515 -540 4 -25 49 18 522 489 419
418 517 522 515 540 -2 19 -91 -64 -522 -489z"/>
<path d="M8745 3020 c-604 -604 -745 -750 -725 -750 19 0 179 154 748 723 636
635 748 754 730 772 -2 2 -341 -333 -753 -745z"/>
<path d="M11250 3206 c-407 -406 -516 -520 -518 -542 -3 -24 53 27 335 306
186 184 421 416 521 515 158 156 183 185 180 208 -3 24 -55 -26 -518 -487z"/>
<path d="M8805 2969 c-587 -588 -666 -670 -635 -664 30 6 133 104 663 633 447
447 630 637 638 660 6 18 9 35 7 37 -2 2 -305 -298 -673 -666z"/>
<path d="M11248 3090 c-397 -393 -518 -518 -518 -536 0 -13 3 -24 8 -24 4 0
238 231 520 513 421 421 513 518 510 537 -2 19 -86 -59 -520 -490z"/>
<path d="M11250 2976 c-405 -405 -516 -520 -518 -543 -3 -23 89 64 515 487
285 283 519 521 521 528 15 54 -49 -5 -518 -472z"/>
<path d="M8856 2909 c-312 -309 -565 -563 -563 -566 3 -2 23 3 46 11 34 11
133 106 554 531 445 450 551 564 534 581 -2 2 -259 -249 -571 -557z"/>
<path d="M11247 2862 c-444 -444 -518 -522 -515 -544 3 -22 66 37 521 486 493
486 518 513 515 544 -3 31 -19 16 -521 -486z"/>
<path d="M8920 2855 c-239 -239 -431 -435 -427 -435 4 0 29 11 55 24 71 37
751 723 786 794 15 28 25 52 24 52 -2 0 -199 -196 -438 -435z"/>
<path d="M7825 3240 c-27 -13 -198 -178 -520 -500 -433 -433 -477 -480 -450
-480 26 0 92 62 530 500 275 275 495 500 490 499 -6 0 -28 -9 -50 -19z"/>
<path d="M11260 2755 c-456 -456 -502 -505 -475 -505 26 0 90 60 508 478 421
421 478 482 475 506 -3 24 -53 -24 -508 -479z"/>
<path d="M7655 3183 c-12 -2 -225 -208 -475 -458 -371 -371 -450 -455 -430
-455 20 0 126 99 490 459 256 253 458 460 450 459 -8 0 -24 -3 -35 -5z"/>
<path d="M7508 3153 c-20 -3 -139 -117 -448 -430 -231 -233 -420 -429 -420
-434 0 -36 86 41 475 431 242 242 435 439 430 439 -6 -1 -22 -4 -37 -6z"/>
<path d="M6953 2728 c-227 -226 -410 -415 -407 -420 3 -4 13 -8 23 -8 11 0
191 176 431 420 324 330 407 420 389 420 -18 0 -127 -103 -436 -412z"/>
<path d="M11320 2695 c-408 -408 -442 -445 -414 -445 28 0 77 47 448 425 315
320 417 429 414 445 -2 16 -100 -77 -448 -425z"/>
<path d="M11375 2640 c-353 -353 -387 -390 -360 -390 26 0 77 47 393 363 319
319 363 367 360 391 -3 24 -40 -11 -393 -364z"/>
<path d="M8975 2789 c-151 -153 -192 -198 -146 -163 84 63 253 231 314 312 27
34 47 62 45 62 -2 0 -98 -95 -213 -211z"/>
<path d="M11435 2580 c-271 -271 -325 -330 -305 -330 37 0 643 607 638 639 -2
17 -63 -39 -333 -309z"/>
<path d="M11490 2525 c-251 -251 -272 -275 -245 -275 26 0 64 34 278 248 216
216 248 252 245 276 -3 24 -28 2 -278 -249z"/>
<path d="M11550 2465 c-174 -175 -210 -216 -188 -213 19 2 81 56 218 192 157
154 191 192 188 212 -3 21 -32 -4 -218 -191z"/>
<path d="M11605 2407 c-149 -146 -158 -156 -130 -157 26 0 50 20 164 134 105
105 132 138 129 156 -3 20 -25 1 -163 -133z"/>
<path d="M11665 2350 c-96 -97 -99 -100 -69 -100 25 0 44 14 102 74 52 53 72
81 72 100 0 14 -1 26 -3 26 -1 0 -47 -45 -102 -100z"/>
<path d="M11725 2299 c-39 -43 -39 -44 -16 -47 33 -5 63 28 59 63 l-3 28 -40
-44z"/>
</g>
</svg>
